<mxfile host="app.diagrams.net" modified="2022-05-31T14:59:45.331Z" agent="5.0 (Macintosh; Intel Mac OS X 10_15_7) AppleWebKit/537.36 (KHTML, like Gecko) Chrome/101.0.4951.64 Safari/537.36" etag="w0-d5OKYPTdTy44STSGW" version="18.1.3" type="github">
  <diagram id="3228e29e-7158-1315-38df-8450db1d8a1d" name="Page-1">
    <mxGraphModel dx="702" dy="758" grid="0" gridSize="10" guides="1" tooltips="1" connect="1" arrows="1" fold="1" page="1" pageScale="1" pageWidth="630" pageHeight="380" background="#EFF1F3" math="0" shadow="0">
      <root>
        <mxCell id="0" />
        <mxCell id="1" parent="0" />
        <mxCell id="Cvay9vzX4nYaMX1bIdTz-32" value="" style="shape=image;verticalLabelPosition=bottom;verticalAlign=top;imageAspect=0;aspect=fixed;image=data:image/svg+xml,PHN2ZyB4bWxuczp4bGluaz0iaHR0cDovL3d3dy53My5vcmcvMTk5OS94bGluayIgeG1sbnM9Imh0dHA6Ly93d3cudzMub3JnLzIwMDAvc3ZnIiBoZWlnaHQ9IjIwMCIgd2lkdGg9IjIwMCIgdmVyc2lvbj0iMS4xIiB2aWV3Qm94PSIwIDAgMTAyNCAxMDI0IiBjbGFzcz0iaWNvbiI+PGRlZnM+PHN0eWxlIHR5cGU9InRleHQvY3NzIj5AZm9udC1mYWNlIHsgZm9udC1mYW1pbHk6IGZlZWRiYWNrLWljb25mb250OyBzcmM6IHVybCgiLy9hdC5hbGljZG4uY29tL3QvZm9udF8xMDMxMTU4X3U2OXc4eWh4ZHUud29mZjI/dD0xNjMwMDMzNzU5OTQ0IikgZm9ybWF0KCJ3b2ZmMiIpLCB1cmwoIi8vYXQuYWxpY2RuLmNvbS90L2ZvbnRfMTAzMTE1OF91Njl3OHloeGR1LndvZmY/dD0xNjMwMDMzNzU5OTQ0IikgZm9ybWF0KCJ3b2ZmIiksIHVybCgiLy9hdC5hbGljZG4uY29tL3QvZm9udF8xMDMxMTU4X3U2OXc4eWh4ZHUudHRmP3Q9MTYzMDAzMzc1OTk0NCIpIGZvcm1hdCgidHJ1ZXR5cGUiKTsgfSYjeGE7PC9zdHlsZT48L2RlZnM+PHBhdGggZmlsbD0iIzRBOTE5QiIgZD0iTTkyOCA0ODBhMzIgMzIgMCAwIDAgMC02NGgtOTZ2LTY0aDk2YTMyIDMyIDAgMCAwIDAtNjRoLTk2di0yOC44QTY3LjIgNjcuMiAwIDAgMCA3NjQuOCAxOTJINzM2Vjk2YTMyIDMyIDAgMCAwLTY0IDB2OTZoLTY0Vjk2YTMyIDMyIDAgMCAwLTY0IDB2OTZoLTY0Vjk2YTMyIDMyIDAgMCAwLTY0IDB2OTZoLTY0Vjk2YTMyIDMyIDAgMCAwLTY0IDB2OTZoLTI4LjhBNjcuMiA2Ny4yIDAgMCAwIDE5MiAyNTkuMlYyODhIOTZhMzIgMzIgMCAwIDAgMCA2NGg5NnY2NEg5NmEzMiAzMiAwIDAgMCAwIDY0aDk2djY0SDk2YTMyIDMyIDAgMCAwIDAgNjRoOTZ2NjRIOTZhMzIgMzIgMCAwIDAgMCA2NGg5NnYyOC44QTY3LjIgNjcuMiAwIDAgMCAyNTkuMiA4MzJIMjg4djk2YTMyIDMyIDAgMCAwIDY0IDB2LTk2aDY0djk2YTMyIDMyIDAgMCAwIDY0IDB2LTk2aDY0djk2YTMyIDMyIDAgMCAwIDY0IDB2LTk2aDY0djk2YTMyIDMyIDAgMCAwIDY0IDB2LTk2aDI4LjhhNjcuMiA2Ny4yIDAgMCAwIDY3LjItNjcuMlY3MzZoOTZhMzIgMzIgMCAwIDAgMC02NGgtOTZ2LTY0aDk2YTMyIDMyIDAgMCAwIDAtNjRoLTk2di02NGg5NnogbS0xOTIgMjI0YTMyIDMyIDAgMCAxLTMyIDMySDMyMGEzMiAzMiAwIDAgMS0zMi0zMlYzMjBhMzIgMzIgMCAwIDEgMzItMzJoMzg0YTMyIDMyIDAgMCAxIDMyIDMydjM4NHoiLz48cGF0aCBmaWxsPSIjNEE5MTlCIiBkPSJNMzg0IDM4NGwyNTYgMCAwIDI1Ni0yNTYgMCAwLTI1NloiLz48L3N2Zz4=" parent="1" vertex="1">
          <mxGeometry x="101" y="-161" width="107" height="107" as="geometry" />
        </mxCell>
        <mxCell id="Cvay9vzX4nYaMX1bIdTz-33" value="&lt;b&gt;&lt;font style=&quot;font-size: 20px;&quot;&gt;CPU&lt;/font&gt;&lt;/b&gt;" style="text;html=1;strokeColor=none;fillColor=none;align=center;verticalAlign=middle;whiteSpace=wrap;rounded=0;fontColor=#4A919B;" parent="1" vertex="1">
          <mxGeometry x="124.5" y="-54" width="60" height="30" as="geometry" />
        </mxCell>
        <mxCell id="u264ilC8qWIfbgQlGhTL-1" value="" style="editableCssRules=.*;shape=image;verticalLabelPosition=bottom;labelBackgroundColor=#ffffff;verticalAlign=top;aspect=fixed;imageAspect=0;image=data:image/svg+xml,PHN2ZyB4bWxucz0iaHR0cDovL3d3dy53My5vcmcvMjAwMC9zdmciIHhtbG5zOnY9Imh0dHBzOi8vdmVjdGEuaW8vbmFubyIgd2lkdGg9IjIwIiBoZWlnaHQ9IjIwIiB2aWV3Qm94PSIwIDAgMjAgMjAiPiYjeGE7CTxzdHlsZSB0eXBlPSJ0ZXh0L2NzcyI+LnN0MCB7IGZpbGw6IHJnYig4MywgOTQsIDEyOCk7IH0gPC9zdHlsZT4mI3hhOwk8cGF0aCBjbGFzcz0ic3QwIiBkPSJNMTMuMzMgMHYyLjM4aC0yLjE2VjBIOC44M3YyLjM4SDYuNjdWMEg0LjI5djIuMzhhMiAyIDAgMCAwLTEuOTEgMS45MUgwdjIuMzhoMi4zOHYyLjE0SDB2Mi4zOGgyLjM4djIuMTRIMHYyLjM4aDIuMzhhMiAyIDAgMCAwIDEuOTEgMS45MVYyMGgyLjM4di0yLjM4aDIuMTZWMjBoMi4zNHYtMi4zOGgyLjE2VjIwaDIuMzh2LTIuMzhhMiAyIDAgMCAwIDEuOTEtMS45MUgyMHYtMi4zOGgtMi4zOHYtMi4xNEgyMFY4LjgxaC0yLjM4VjYuNjdIMjBWNC4yOWgtMi4zOGEyIDIgMCAwIDAtMS45MS0xLjkxVjB6bTEuNTMgMTUuMjRINS4xNGEuMzguMzggMCAwIDEtLjM4LS4zOFY1LjE0YS4zOC4zOCAwIDAgMSAuMzgtLjM4aDkuNzJhLjM4LjM4IDAgMCAxIC4zOC4zOHY5LjcyYS4zOC4zOCAwIDAgMS0uMzguMzh6bS0yLjA3LTYuMTJsLTMuNSA0Ljg2di0zLjYzSDcuMjJsMy42MS00LjgxdjMuNTh6Ii8+JiN4YTs8L3N2Zz4=;fillColor=#9AC7BF;" parent="1" vertex="1">
          <mxGeometry x="389.5" y="-153" width="90" height="90" as="geometry" />
        </mxCell>
        <mxCell id="u264ilC8qWIfbgQlGhTL-2" value="&lt;b&gt;&lt;font style=&quot;font-size: 20px;&quot;&gt;GPU&lt;/font&gt;&lt;/b&gt;" style="text;html=1;strokeColor=none;fillColor=none;align=center;verticalAlign=middle;whiteSpace=wrap;rounded=0;fontColor=#535E80;" parent="1" vertex="1">
          <mxGeometry x="404.5" y="-54" width="60" height="30" as="geometry" />
        </mxCell>
        <mxCell id="z3EhqX91uvno9xciMRmo-1" value="控制单元" style="rounded=1;whiteSpace=wrap;html=1;fillColor=#FDD276;strokeColor=none;" parent="1" vertex="1">
          <mxGeometry x="49" y="-350" width="120" height="76" as="geometry" />
        </mxCell>
        <mxCell id="z3EhqX91uvno9xciMRmo-2" value="&lt;font style=&quot;font-size: 11px;&quot;&gt;计算&lt;br style=&quot;font-size: 11px;&quot;&gt;单元&lt;/font&gt;" style="rounded=1;whiteSpace=wrap;html=1;fillColor=#9AC7BF;strokeColor=none;" parent="1" vertex="1">
          <mxGeometry x="174" y="-350" width="44" height="35" as="geometry" />
        </mxCell>
        <mxCell id="z3EhqX91uvno9xciMRmo-6" value="存储单元（Cache）" style="rounded=1;whiteSpace=wrap;html=1;fillColor=#F19C99;strokeColor=none;" parent="1" vertex="1">
          <mxGeometry x="49" y="-268" width="221" height="45" as="geometry" />
        </mxCell>
        <mxCell id="z3EhqX91uvno9xciMRmo-7" value="&lt;span style=&quot;&quot;&gt;存储单元（DRAM）&lt;/span&gt;" style="rounded=1;whiteSpace=wrap;html=1;fillColor=#F19C99;strokeColor=none;" parent="1" vertex="1">
          <mxGeometry x="49" y="-218" width="221" height="45" as="geometry" />
        </mxCell>
        <mxCell id="z3EhqX91uvno9xciMRmo-9" value="&lt;font style=&quot;font-size: 11px;&quot;&gt;计算&lt;br style=&quot;font-size: 11px;&quot;&gt;单元&lt;/font&gt;" style="rounded=1;whiteSpace=wrap;html=1;fillColor=#9AC7BF;strokeColor=none;" parent="1" vertex="1">
          <mxGeometry x="174" y="-310" width="44" height="35" as="geometry" />
        </mxCell>
        <mxCell id="z3EhqX91uvno9xciMRmo-10" value="&lt;font style=&quot;font-size: 11px;&quot;&gt;计算&lt;br style=&quot;font-size: 11px;&quot;&gt;单元&lt;/font&gt;" style="rounded=1;whiteSpace=wrap;html=1;fillColor=#9AC7BF;strokeColor=none;" parent="1" vertex="1">
          <mxGeometry x="223.5" y="-350" width="44" height="35" as="geometry" />
        </mxCell>
        <mxCell id="z3EhqX91uvno9xciMRmo-11" value="&lt;font style=&quot;font-size: 11px;&quot;&gt;计算&lt;br style=&quot;font-size: 11px;&quot;&gt;单元&lt;/font&gt;" style="rounded=1;whiteSpace=wrap;html=1;fillColor=#9AC7BF;strokeColor=none;" parent="1" vertex="1">
          <mxGeometry x="223.5" y="-310" width="44" height="35" as="geometry" />
        </mxCell>
        <mxCell id="z3EhqX91uvno9xciMRmo-12" value="" style="rounded=1;whiteSpace=wrap;html=1;fillColor=#FDD276;strokeColor=none;" parent="1" vertex="1">
          <mxGeometry x="321" y="-356" width="16" height="6" as="geometry" />
        </mxCell>
        <mxCell id="z3EhqX91uvno9xciMRmo-15" value="&lt;span style=&quot;&quot;&gt;存储单元（DRAM）&lt;/span&gt;" style="rounded=1;whiteSpace=wrap;html=1;fillColor=#F19C99;strokeColor=none;" parent="1" vertex="1">
          <mxGeometry x="321" y="-218" width="227" height="45" as="geometry" />
        </mxCell>
        <mxCell id="z3EhqX91uvno9xciMRmo-19" value="" style="rounded=1;whiteSpace=wrap;html=1;fillColor=#F19C99;strokeColor=none;" parent="1" vertex="1">
          <mxGeometry x="321" y="-350" width="16" height="6" as="geometry" />
        </mxCell>
        <mxCell id="z3EhqX91uvno9xciMRmo-20" value="" style="rounded=1;whiteSpace=wrap;html=1;fillColor=#FDD276;strokeColor=none;" parent="1" vertex="1">
          <mxGeometry x="321" y="-341" width="16" height="6" as="geometry" />
        </mxCell>
        <mxCell id="z3EhqX91uvno9xciMRmo-21" value="" style="rounded=1;whiteSpace=wrap;html=1;fillColor=#F19C99;strokeColor=none;" parent="1" vertex="1">
          <mxGeometry x="321" y="-335" width="16" height="6" as="geometry" />
        </mxCell>
        <mxCell id="z3EhqX91uvno9xciMRmo-22" value="" style="rounded=1;whiteSpace=wrap;html=1;fillColor=#FDD276;strokeColor=none;" parent="1" vertex="1">
          <mxGeometry x="321" y="-325" width="16" height="6" as="geometry" />
        </mxCell>
        <mxCell id="z3EhqX91uvno9xciMRmo-23" value="" style="rounded=1;whiteSpace=wrap;html=1;fillColor=#F19C99;strokeColor=none;" parent="1" vertex="1">
          <mxGeometry x="321" y="-319" width="16" height="6" as="geometry" />
        </mxCell>
        <mxCell id="z3EhqX91uvno9xciMRmo-24" value="" style="rounded=1;whiteSpace=wrap;html=1;fillColor=#FDD276;strokeColor=none;" parent="1" vertex="1">
          <mxGeometry x="321" y="-310" width="16" height="6" as="geometry" />
        </mxCell>
        <mxCell id="z3EhqX91uvno9xciMRmo-25" value="" style="rounded=1;whiteSpace=wrap;html=1;fillColor=#F19C99;strokeColor=none;" parent="1" vertex="1">
          <mxGeometry x="321" y="-304" width="16" height="6" as="geometry" />
        </mxCell>
        <mxCell id="z3EhqX91uvno9xciMRmo-26" value="" style="rounded=1;whiteSpace=wrap;html=1;fillColor=#FDD276;strokeColor=none;" parent="1" vertex="1">
          <mxGeometry x="321" y="-294" width="16" height="6" as="geometry" />
        </mxCell>
        <mxCell id="z3EhqX91uvno9xciMRmo-27" value="" style="rounded=1;whiteSpace=wrap;html=1;fillColor=#F19C99;strokeColor=none;" parent="1" vertex="1">
          <mxGeometry x="321" y="-288" width="16" height="6" as="geometry" />
        </mxCell>
        <mxCell id="z3EhqX91uvno9xciMRmo-28" value="" style="rounded=1;whiteSpace=wrap;html=1;fillColor=#FDD276;strokeColor=none;" parent="1" vertex="1">
          <mxGeometry x="321" y="-279" width="16" height="6" as="geometry" />
        </mxCell>
        <mxCell id="z3EhqX91uvno9xciMRmo-29" value="" style="rounded=1;whiteSpace=wrap;html=1;fillColor=#F19C99;strokeColor=none;" parent="1" vertex="1">
          <mxGeometry x="321" y="-273" width="16" height="6" as="geometry" />
        </mxCell>
        <mxCell id="z3EhqX91uvno9xciMRmo-30" value="" style="rounded=1;whiteSpace=wrap;html=1;fillColor=#FDD276;strokeColor=none;" parent="1" vertex="1">
          <mxGeometry x="321" y="-263" width="16" height="6" as="geometry" />
        </mxCell>
        <mxCell id="z3EhqX91uvno9xciMRmo-31" value="" style="rounded=1;whiteSpace=wrap;html=1;fillColor=#F19C99;strokeColor=none;" parent="1" vertex="1">
          <mxGeometry x="321" y="-257" width="16" height="6" as="geometry" />
        </mxCell>
        <mxCell id="z3EhqX91uvno9xciMRmo-32" value="" style="rounded=1;whiteSpace=wrap;html=1;fillColor=#FDD276;strokeColor=none;" parent="1" vertex="1">
          <mxGeometry x="321" y="-248" width="16" height="6" as="geometry" />
        </mxCell>
        <mxCell id="z3EhqX91uvno9xciMRmo-33" value="" style="rounded=1;whiteSpace=wrap;html=1;fillColor=#F19C99;strokeColor=none;" parent="1" vertex="1">
          <mxGeometry x="321" y="-242" width="16" height="6" as="geometry" />
        </mxCell>
        <mxCell id="z3EhqX91uvno9xciMRmo-34" value="" style="rounded=1;whiteSpace=wrap;html=1;fillColor=#FDD276;strokeColor=none;" parent="1" vertex="1">
          <mxGeometry x="321" y="-233" width="16" height="6" as="geometry" />
        </mxCell>
        <mxCell id="z3EhqX91uvno9xciMRmo-35" value="" style="rounded=1;whiteSpace=wrap;html=1;fillColor=#F19C99;strokeColor=none;" parent="1" vertex="1">
          <mxGeometry x="321" y="-227" width="16" height="6" as="geometry" />
        </mxCell>
        <mxCell id="z3EhqX91uvno9xciMRmo-36" value="" style="whiteSpace=wrap;html=1;aspect=fixed;fontSize=11;fillColor=#9AC7BF;strokeColor=none;rounded=1;" parent="1" vertex="1">
          <mxGeometry x="340" y="-356" width="12" height="12" as="geometry" />
        </mxCell>
        <mxCell id="z3EhqX91uvno9xciMRmo-37" value="" style="whiteSpace=wrap;html=1;aspect=fixed;fontSize=11;fillColor=#9AC7BF;strokeColor=none;rounded=1;" parent="1" vertex="1">
          <mxGeometry x="355" y="-356" width="12" height="12" as="geometry" />
        </mxCell>
        <mxCell id="z3EhqX91uvno9xciMRmo-38" value="" style="whiteSpace=wrap;html=1;aspect=fixed;fontSize=11;fillColor=#9AC7BF;strokeColor=none;rounded=1;" parent="1" vertex="1">
          <mxGeometry x="370" y="-356" width="12" height="12" as="geometry" />
        </mxCell>
        <mxCell id="z3EhqX91uvno9xciMRmo-39" value="" style="whiteSpace=wrap;html=1;aspect=fixed;fontSize=11;fillColor=#9AC7BF;strokeColor=none;rounded=1;" parent="1" vertex="1">
          <mxGeometry x="385" y="-356" width="12" height="12" as="geometry" />
        </mxCell>
        <mxCell id="z3EhqX91uvno9xciMRmo-40" value="" style="whiteSpace=wrap;html=1;aspect=fixed;fontSize=11;fillColor=#9AC7BF;strokeColor=none;rounded=1;" parent="1" vertex="1">
          <mxGeometry x="400" y="-356" width="12" height="12" as="geometry" />
        </mxCell>
        <mxCell id="z3EhqX91uvno9xciMRmo-41" value="" style="whiteSpace=wrap;html=1;aspect=fixed;fontSize=11;fillColor=#9AC7BF;strokeColor=none;rounded=1;" parent="1" vertex="1">
          <mxGeometry x="415" y="-356" width="12" height="12" as="geometry" />
        </mxCell>
        <mxCell id="z3EhqX91uvno9xciMRmo-42" value="" style="whiteSpace=wrap;html=1;aspect=fixed;fontSize=11;fillColor=#9AC7BF;strokeColor=none;rounded=1;" parent="1" vertex="1">
          <mxGeometry x="430" y="-356" width="12" height="12" as="geometry" />
        </mxCell>
        <mxCell id="z3EhqX91uvno9xciMRmo-43" value="" style="whiteSpace=wrap;html=1;aspect=fixed;fontSize=11;fillColor=#9AC7BF;strokeColor=none;rounded=1;" parent="1" vertex="1">
          <mxGeometry x="445" y="-356" width="12" height="12" as="geometry" />
        </mxCell>
        <mxCell id="z3EhqX91uvno9xciMRmo-44" value="" style="whiteSpace=wrap;html=1;aspect=fixed;fontSize=11;fillColor=#9AC7BF;strokeColor=none;rounded=1;" parent="1" vertex="1">
          <mxGeometry x="460" y="-356" width="12" height="12" as="geometry" />
        </mxCell>
        <mxCell id="z3EhqX91uvno9xciMRmo-45" value="" style="whiteSpace=wrap;html=1;aspect=fixed;fontSize=11;fillColor=#9AC7BF;strokeColor=none;rounded=1;" parent="1" vertex="1">
          <mxGeometry x="475" y="-356" width="12" height="12" as="geometry" />
        </mxCell>
        <mxCell id="z3EhqX91uvno9xciMRmo-46" value="" style="whiteSpace=wrap;html=1;aspect=fixed;fontSize=11;fillColor=#9AC7BF;strokeColor=none;rounded=1;" parent="1" vertex="1">
          <mxGeometry x="490" y="-356" width="12" height="12" as="geometry" />
        </mxCell>
        <mxCell id="z3EhqX91uvno9xciMRmo-47" value="" style="whiteSpace=wrap;html=1;aspect=fixed;fontSize=11;fillColor=#9AC7BF;strokeColor=none;rounded=1;" parent="1" vertex="1">
          <mxGeometry x="505" y="-356" width="12" height="12" as="geometry" />
        </mxCell>
        <mxCell id="z3EhqX91uvno9xciMRmo-48" value="" style="whiteSpace=wrap;html=1;aspect=fixed;fontSize=11;fillColor=#9AC7BF;strokeColor=none;rounded=1;" parent="1" vertex="1">
          <mxGeometry x="520" y="-356" width="12" height="12" as="geometry" />
        </mxCell>
        <mxCell id="z3EhqX91uvno9xciMRmo-49" value="" style="whiteSpace=wrap;html=1;aspect=fixed;fontSize=11;fillColor=#9AC7BF;strokeColor=none;rounded=1;" parent="1" vertex="1">
          <mxGeometry x="535" y="-356" width="12" height="12" as="geometry" />
        </mxCell>
        <mxCell id="z3EhqX91uvno9xciMRmo-52" value="" style="whiteSpace=wrap;html=1;aspect=fixed;fontSize=11;fillColor=#9AC7BF;strokeColor=none;rounded=1;" parent="1" vertex="1">
          <mxGeometry x="340" y="-341" width="12" height="12" as="geometry" />
        </mxCell>
        <mxCell id="z3EhqX91uvno9xciMRmo-53" value="" style="whiteSpace=wrap;html=1;aspect=fixed;fontSize=11;fillColor=#9AC7BF;strokeColor=none;rounded=1;" parent="1" vertex="1">
          <mxGeometry x="355" y="-341" width="12" height="12" as="geometry" />
        </mxCell>
        <mxCell id="z3EhqX91uvno9xciMRmo-54" value="" style="whiteSpace=wrap;html=1;aspect=fixed;fontSize=11;fillColor=#9AC7BF;strokeColor=none;rounded=1;" parent="1" vertex="1">
          <mxGeometry x="370" y="-341" width="12" height="12" as="geometry" />
        </mxCell>
        <mxCell id="z3EhqX91uvno9xciMRmo-55" value="" style="whiteSpace=wrap;html=1;aspect=fixed;fontSize=11;fillColor=#9AC7BF;strokeColor=none;rounded=1;" parent="1" vertex="1">
          <mxGeometry x="385" y="-341" width="12" height="12" as="geometry" />
        </mxCell>
        <mxCell id="z3EhqX91uvno9xciMRmo-56" value="" style="whiteSpace=wrap;html=1;aspect=fixed;fontSize=11;fillColor=#9AC7BF;strokeColor=none;rounded=1;" parent="1" vertex="1">
          <mxGeometry x="400" y="-341" width="12" height="12" as="geometry" />
        </mxCell>
        <mxCell id="z3EhqX91uvno9xciMRmo-57" value="" style="whiteSpace=wrap;html=1;aspect=fixed;fontSize=11;fillColor=#9AC7BF;strokeColor=none;rounded=1;" parent="1" vertex="1">
          <mxGeometry x="415" y="-341" width="12" height="12" as="geometry" />
        </mxCell>
        <mxCell id="z3EhqX91uvno9xciMRmo-58" value="" style="whiteSpace=wrap;html=1;aspect=fixed;fontSize=11;fillColor=#9AC7BF;strokeColor=none;rounded=1;" parent="1" vertex="1">
          <mxGeometry x="430" y="-341" width="12" height="12" as="geometry" />
        </mxCell>
        <mxCell id="z3EhqX91uvno9xciMRmo-59" value="" style="whiteSpace=wrap;html=1;aspect=fixed;fontSize=11;fillColor=#9AC7BF;strokeColor=none;rounded=1;" parent="1" vertex="1">
          <mxGeometry x="445" y="-341" width="12" height="12" as="geometry" />
        </mxCell>
        <mxCell id="z3EhqX91uvno9xciMRmo-60" value="" style="whiteSpace=wrap;html=1;aspect=fixed;fontSize=11;fillColor=#9AC7BF;strokeColor=none;rounded=1;" parent="1" vertex="1">
          <mxGeometry x="460" y="-341" width="12" height="12" as="geometry" />
        </mxCell>
        <mxCell id="z3EhqX91uvno9xciMRmo-61" value="" style="whiteSpace=wrap;html=1;aspect=fixed;fontSize=11;fillColor=#9AC7BF;strokeColor=none;rounded=1;" parent="1" vertex="1">
          <mxGeometry x="475" y="-341" width="12" height="12" as="geometry" />
        </mxCell>
        <mxCell id="z3EhqX91uvno9xciMRmo-62" value="" style="whiteSpace=wrap;html=1;aspect=fixed;fontSize=11;fillColor=#9AC7BF;strokeColor=none;rounded=1;" parent="1" vertex="1">
          <mxGeometry x="490" y="-341" width="12" height="12" as="geometry" />
        </mxCell>
        <mxCell id="z3EhqX91uvno9xciMRmo-63" value="" style="whiteSpace=wrap;html=1;aspect=fixed;fontSize=11;fillColor=#9AC7BF;strokeColor=none;rounded=1;" parent="1" vertex="1">
          <mxGeometry x="505" y="-341" width="12" height="12" as="geometry" />
        </mxCell>
        <mxCell id="z3EhqX91uvno9xciMRmo-64" value="" style="whiteSpace=wrap;html=1;aspect=fixed;fontSize=11;fillColor=#9AC7BF;strokeColor=none;rounded=1;" parent="1" vertex="1">
          <mxGeometry x="520" y="-341" width="12" height="12" as="geometry" />
        </mxCell>
        <mxCell id="z3EhqX91uvno9xciMRmo-65" value="" style="whiteSpace=wrap;html=1;aspect=fixed;fontSize=11;fillColor=#9AC7BF;strokeColor=none;rounded=1;" parent="1" vertex="1">
          <mxGeometry x="535" y="-341" width="12" height="12" as="geometry" />
        </mxCell>
        <mxCell id="z3EhqX91uvno9xciMRmo-66" value="" style="whiteSpace=wrap;html=1;aspect=fixed;fontSize=11;fillColor=#9AC7BF;strokeColor=none;rounded=1;" parent="1" vertex="1">
          <mxGeometry x="340" y="-325" width="12" height="12" as="geometry" />
        </mxCell>
        <mxCell id="z3EhqX91uvno9xciMRmo-67" value="" style="whiteSpace=wrap;html=1;aspect=fixed;fontSize=11;fillColor=#9AC7BF;strokeColor=none;rounded=1;" parent="1" vertex="1">
          <mxGeometry x="355" y="-325" width="12" height="12" as="geometry" />
        </mxCell>
        <mxCell id="z3EhqX91uvno9xciMRmo-68" value="" style="whiteSpace=wrap;html=1;aspect=fixed;fontSize=11;fillColor=#9AC7BF;strokeColor=none;rounded=1;" parent="1" vertex="1">
          <mxGeometry x="370" y="-325" width="12" height="12" as="geometry" />
        </mxCell>
        <mxCell id="z3EhqX91uvno9xciMRmo-69" value="" style="whiteSpace=wrap;html=1;aspect=fixed;fontSize=11;fillColor=#9AC7BF;strokeColor=none;rounded=1;" parent="1" vertex="1">
          <mxGeometry x="385" y="-325" width="12" height="12" as="geometry" />
        </mxCell>
        <mxCell id="z3EhqX91uvno9xciMRmo-70" value="" style="whiteSpace=wrap;html=1;aspect=fixed;fontSize=11;fillColor=#9AC7BF;strokeColor=none;rounded=1;" parent="1" vertex="1">
          <mxGeometry x="400" y="-325" width="12" height="12" as="geometry" />
        </mxCell>
        <mxCell id="z3EhqX91uvno9xciMRmo-71" value="" style="whiteSpace=wrap;html=1;aspect=fixed;fontSize=11;fillColor=#9AC7BF;strokeColor=none;rounded=1;" parent="1" vertex="1">
          <mxGeometry x="415" y="-325" width="12" height="12" as="geometry" />
        </mxCell>
        <mxCell id="z3EhqX91uvno9xciMRmo-72" value="" style="whiteSpace=wrap;html=1;aspect=fixed;fontSize=11;fillColor=#9AC7BF;strokeColor=none;rounded=1;" parent="1" vertex="1">
          <mxGeometry x="430" y="-325" width="12" height="12" as="geometry" />
        </mxCell>
        <mxCell id="z3EhqX91uvno9xciMRmo-73" value="" style="whiteSpace=wrap;html=1;aspect=fixed;fontSize=11;fillColor=#9AC7BF;strokeColor=none;rounded=1;" parent="1" vertex="1">
          <mxGeometry x="445" y="-325" width="12" height="12" as="geometry" />
        </mxCell>
        <mxCell id="z3EhqX91uvno9xciMRmo-74" value="" style="whiteSpace=wrap;html=1;aspect=fixed;fontSize=11;fillColor=#9AC7BF;strokeColor=none;rounded=1;" parent="1" vertex="1">
          <mxGeometry x="460" y="-325" width="12" height="12" as="geometry" />
        </mxCell>
        <mxCell id="z3EhqX91uvno9xciMRmo-75" value="" style="whiteSpace=wrap;html=1;aspect=fixed;fontSize=11;fillColor=#9AC7BF;strokeColor=none;rounded=1;" parent="1" vertex="1">
          <mxGeometry x="475" y="-325" width="12" height="12" as="geometry" />
        </mxCell>
        <mxCell id="z3EhqX91uvno9xciMRmo-76" value="" style="whiteSpace=wrap;html=1;aspect=fixed;fontSize=11;fillColor=#9AC7BF;strokeColor=none;rounded=1;" parent="1" vertex="1">
          <mxGeometry x="490" y="-325" width="12" height="12" as="geometry" />
        </mxCell>
        <mxCell id="z3EhqX91uvno9xciMRmo-77" value="" style="whiteSpace=wrap;html=1;aspect=fixed;fontSize=11;fillColor=#9AC7BF;strokeColor=none;rounded=1;" parent="1" vertex="1">
          <mxGeometry x="505" y="-325" width="12" height="12" as="geometry" />
        </mxCell>
        <mxCell id="z3EhqX91uvno9xciMRmo-78" value="" style="whiteSpace=wrap;html=1;aspect=fixed;fontSize=11;fillColor=#9AC7BF;strokeColor=none;rounded=1;" parent="1" vertex="1">
          <mxGeometry x="520" y="-325" width="12" height="12" as="geometry" />
        </mxCell>
        <mxCell id="z3EhqX91uvno9xciMRmo-79" value="" style="whiteSpace=wrap;html=1;aspect=fixed;fontSize=11;fillColor=#9AC7BF;strokeColor=none;rounded=1;" parent="1" vertex="1">
          <mxGeometry x="535" y="-325" width="12" height="12" as="geometry" />
        </mxCell>
        <mxCell id="z3EhqX91uvno9xciMRmo-80" value="" style="whiteSpace=wrap;html=1;aspect=fixed;fontSize=11;fillColor=#9AC7BF;strokeColor=none;rounded=1;" parent="1" vertex="1">
          <mxGeometry x="340" y="-310" width="12" height="12" as="geometry" />
        </mxCell>
        <mxCell id="z3EhqX91uvno9xciMRmo-81" value="" style="whiteSpace=wrap;html=1;aspect=fixed;fontSize=11;fillColor=#9AC7BF;strokeColor=none;rounded=1;" parent="1" vertex="1">
          <mxGeometry x="355" y="-310" width="12" height="12" as="geometry" />
        </mxCell>
        <mxCell id="z3EhqX91uvno9xciMRmo-82" value="" style="whiteSpace=wrap;html=1;aspect=fixed;fontSize=11;fillColor=#9AC7BF;strokeColor=none;rounded=1;" parent="1" vertex="1">
          <mxGeometry x="370" y="-310" width="12" height="12" as="geometry" />
        </mxCell>
        <mxCell id="z3EhqX91uvno9xciMRmo-83" value="" style="whiteSpace=wrap;html=1;aspect=fixed;fontSize=11;fillColor=#9AC7BF;strokeColor=none;rounded=1;" parent="1" vertex="1">
          <mxGeometry x="385" y="-310" width="12" height="12" as="geometry" />
        </mxCell>
        <mxCell id="z3EhqX91uvno9xciMRmo-84" value="" style="whiteSpace=wrap;html=1;aspect=fixed;fontSize=11;fillColor=#9AC7BF;strokeColor=none;rounded=1;" parent="1" vertex="1">
          <mxGeometry x="400" y="-310" width="12" height="12" as="geometry" />
        </mxCell>
        <mxCell id="z3EhqX91uvno9xciMRmo-85" value="" style="whiteSpace=wrap;html=1;aspect=fixed;fontSize=11;fillColor=#9AC7BF;strokeColor=none;rounded=1;" parent="1" vertex="1">
          <mxGeometry x="415" y="-310" width="12" height="12" as="geometry" />
        </mxCell>
        <mxCell id="z3EhqX91uvno9xciMRmo-86" value="" style="whiteSpace=wrap;html=1;aspect=fixed;fontSize=11;fillColor=#9AC7BF;strokeColor=none;rounded=1;" parent="1" vertex="1">
          <mxGeometry x="430" y="-310" width="12" height="12" as="geometry" />
        </mxCell>
        <mxCell id="z3EhqX91uvno9xciMRmo-87" value="" style="whiteSpace=wrap;html=1;aspect=fixed;fontSize=11;fillColor=#9AC7BF;strokeColor=none;rounded=1;" parent="1" vertex="1">
          <mxGeometry x="445" y="-310" width="12" height="12" as="geometry" />
        </mxCell>
        <mxCell id="z3EhqX91uvno9xciMRmo-88" value="" style="whiteSpace=wrap;html=1;aspect=fixed;fontSize=11;fillColor=#9AC7BF;strokeColor=none;rounded=1;" parent="1" vertex="1">
          <mxGeometry x="460" y="-310" width="12" height="12" as="geometry" />
        </mxCell>
        <mxCell id="z3EhqX91uvno9xciMRmo-89" value="" style="whiteSpace=wrap;html=1;aspect=fixed;fontSize=11;fillColor=#9AC7BF;strokeColor=none;rounded=1;" parent="1" vertex="1">
          <mxGeometry x="475" y="-310" width="12" height="12" as="geometry" />
        </mxCell>
        <mxCell id="z3EhqX91uvno9xciMRmo-90" value="" style="whiteSpace=wrap;html=1;aspect=fixed;fontSize=11;fillColor=#9AC7BF;strokeColor=none;rounded=1;" parent="1" vertex="1">
          <mxGeometry x="490" y="-310" width="12" height="12" as="geometry" />
        </mxCell>
        <mxCell id="z3EhqX91uvno9xciMRmo-91" value="" style="whiteSpace=wrap;html=1;aspect=fixed;fontSize=11;fillColor=#9AC7BF;strokeColor=none;rounded=1;" parent="1" vertex="1">
          <mxGeometry x="505" y="-310" width="12" height="12" as="geometry" />
        </mxCell>
        <mxCell id="z3EhqX91uvno9xciMRmo-92" value="" style="whiteSpace=wrap;html=1;aspect=fixed;fontSize=11;fillColor=#9AC7BF;strokeColor=none;rounded=1;" parent="1" vertex="1">
          <mxGeometry x="520" y="-310" width="12" height="12" as="geometry" />
        </mxCell>
        <mxCell id="z3EhqX91uvno9xciMRmo-93" value="" style="whiteSpace=wrap;html=1;aspect=fixed;fontSize=11;fillColor=#9AC7BF;strokeColor=none;rounded=1;" parent="1" vertex="1">
          <mxGeometry x="535" y="-310" width="12" height="12" as="geometry" />
        </mxCell>
        <mxCell id="z3EhqX91uvno9xciMRmo-94" value="" style="whiteSpace=wrap;html=1;aspect=fixed;fontSize=11;fillColor=#9AC7BF;strokeColor=none;rounded=1;" parent="1" vertex="1">
          <mxGeometry x="340" y="-294" width="12" height="12" as="geometry" />
        </mxCell>
        <mxCell id="z3EhqX91uvno9xciMRmo-95" value="" style="whiteSpace=wrap;html=1;aspect=fixed;fontSize=11;fillColor=#9AC7BF;strokeColor=none;rounded=1;" parent="1" vertex="1">
          <mxGeometry x="355" y="-294" width="12" height="12" as="geometry" />
        </mxCell>
        <mxCell id="z3EhqX91uvno9xciMRmo-96" value="" style="whiteSpace=wrap;html=1;aspect=fixed;fontSize=11;fillColor=#9AC7BF;strokeColor=none;rounded=1;" parent="1" vertex="1">
          <mxGeometry x="370" y="-294" width="12" height="12" as="geometry" />
        </mxCell>
        <mxCell id="z3EhqX91uvno9xciMRmo-97" value="" style="whiteSpace=wrap;html=1;aspect=fixed;fontSize=11;fillColor=#9AC7BF;strokeColor=none;rounded=1;" parent="1" vertex="1">
          <mxGeometry x="385" y="-294" width="12" height="12" as="geometry" />
        </mxCell>
        <mxCell id="z3EhqX91uvno9xciMRmo-98" value="" style="whiteSpace=wrap;html=1;aspect=fixed;fontSize=11;fillColor=#9AC7BF;strokeColor=none;rounded=1;" parent="1" vertex="1">
          <mxGeometry x="400" y="-294" width="12" height="12" as="geometry" />
        </mxCell>
        <mxCell id="z3EhqX91uvno9xciMRmo-99" value="" style="whiteSpace=wrap;html=1;aspect=fixed;fontSize=11;fillColor=#9AC7BF;strokeColor=none;rounded=1;" parent="1" vertex="1">
          <mxGeometry x="415" y="-294" width="12" height="12" as="geometry" />
        </mxCell>
        <mxCell id="z3EhqX91uvno9xciMRmo-100" value="" style="whiteSpace=wrap;html=1;aspect=fixed;fontSize=11;fillColor=#9AC7BF;strokeColor=none;rounded=1;" parent="1" vertex="1">
          <mxGeometry x="430" y="-294" width="12" height="12" as="geometry" />
        </mxCell>
        <mxCell id="z3EhqX91uvno9xciMRmo-101" value="" style="whiteSpace=wrap;html=1;aspect=fixed;fontSize=11;fillColor=#9AC7BF;strokeColor=none;rounded=1;" parent="1" vertex="1">
          <mxGeometry x="445" y="-294" width="12" height="12" as="geometry" />
        </mxCell>
        <mxCell id="z3EhqX91uvno9xciMRmo-102" value="" style="whiteSpace=wrap;html=1;aspect=fixed;fontSize=11;fillColor=#9AC7BF;strokeColor=none;rounded=1;" parent="1" vertex="1">
          <mxGeometry x="460" y="-294" width="12" height="12" as="geometry" />
        </mxCell>
        <mxCell id="z3EhqX91uvno9xciMRmo-103" value="" style="whiteSpace=wrap;html=1;aspect=fixed;fontSize=11;fillColor=#9AC7BF;strokeColor=none;rounded=1;" parent="1" vertex="1">
          <mxGeometry x="475" y="-294" width="12" height="12" as="geometry" />
        </mxCell>
        <mxCell id="z3EhqX91uvno9xciMRmo-104" value="" style="whiteSpace=wrap;html=1;aspect=fixed;fontSize=11;fillColor=#9AC7BF;strokeColor=none;rounded=1;" parent="1" vertex="1">
          <mxGeometry x="490" y="-294" width="12" height="12" as="geometry" />
        </mxCell>
        <mxCell id="z3EhqX91uvno9xciMRmo-105" value="" style="whiteSpace=wrap;html=1;aspect=fixed;fontSize=11;fillColor=#9AC7BF;strokeColor=none;rounded=1;" parent="1" vertex="1">
          <mxGeometry x="505" y="-294" width="12" height="12" as="geometry" />
        </mxCell>
        <mxCell id="z3EhqX91uvno9xciMRmo-106" value="" style="whiteSpace=wrap;html=1;aspect=fixed;fontSize=11;fillColor=#9AC7BF;strokeColor=none;rounded=1;" parent="1" vertex="1">
          <mxGeometry x="520" y="-294" width="12" height="12" as="geometry" />
        </mxCell>
        <mxCell id="z3EhqX91uvno9xciMRmo-107" value="" style="whiteSpace=wrap;html=1;aspect=fixed;fontSize=11;fillColor=#9AC7BF;strokeColor=none;rounded=1;" parent="1" vertex="1">
          <mxGeometry x="535" y="-294" width="12" height="12" as="geometry" />
        </mxCell>
        <mxCell id="z3EhqX91uvno9xciMRmo-108" value="" style="whiteSpace=wrap;html=1;aspect=fixed;fontSize=11;fillColor=#9AC7BF;strokeColor=none;rounded=1;" parent="1" vertex="1">
          <mxGeometry x="340" y="-279" width="12" height="12" as="geometry" />
        </mxCell>
        <mxCell id="z3EhqX91uvno9xciMRmo-109" value="" style="whiteSpace=wrap;html=1;aspect=fixed;fontSize=11;fillColor=#9AC7BF;strokeColor=none;rounded=1;" parent="1" vertex="1">
          <mxGeometry x="355" y="-279" width="12" height="12" as="geometry" />
        </mxCell>
        <mxCell id="z3EhqX91uvno9xciMRmo-110" value="" style="whiteSpace=wrap;html=1;aspect=fixed;fontSize=11;fillColor=#9AC7BF;strokeColor=none;rounded=1;" parent="1" vertex="1">
          <mxGeometry x="370" y="-279" width="12" height="12" as="geometry" />
        </mxCell>
        <mxCell id="z3EhqX91uvno9xciMRmo-111" value="" style="whiteSpace=wrap;html=1;aspect=fixed;fontSize=11;fillColor=#9AC7BF;strokeColor=none;rounded=1;" parent="1" vertex="1">
          <mxGeometry x="385" y="-279" width="12" height="12" as="geometry" />
        </mxCell>
        <mxCell id="z3EhqX91uvno9xciMRmo-112" value="" style="whiteSpace=wrap;html=1;aspect=fixed;fontSize=11;fillColor=#9AC7BF;strokeColor=none;rounded=1;" parent="1" vertex="1">
          <mxGeometry x="400" y="-279" width="12" height="12" as="geometry" />
        </mxCell>
        <mxCell id="z3EhqX91uvno9xciMRmo-113" value="" style="whiteSpace=wrap;html=1;aspect=fixed;fontSize=11;fillColor=#9AC7BF;strokeColor=none;rounded=1;" parent="1" vertex="1">
          <mxGeometry x="415" y="-279" width="12" height="12" as="geometry" />
        </mxCell>
        <mxCell id="z3EhqX91uvno9xciMRmo-114" value="" style="whiteSpace=wrap;html=1;aspect=fixed;fontSize=11;fillColor=#9AC7BF;strokeColor=none;rounded=1;" parent="1" vertex="1">
          <mxGeometry x="430" y="-279" width="12" height="12" as="geometry" />
        </mxCell>
        <mxCell id="z3EhqX91uvno9xciMRmo-115" value="" style="whiteSpace=wrap;html=1;aspect=fixed;fontSize=11;fillColor=#9AC7BF;strokeColor=none;rounded=1;" parent="1" vertex="1">
          <mxGeometry x="445" y="-279" width="12" height="12" as="geometry" />
        </mxCell>
        <mxCell id="z3EhqX91uvno9xciMRmo-116" value="" style="whiteSpace=wrap;html=1;aspect=fixed;fontSize=11;fillColor=#9AC7BF;strokeColor=none;rounded=1;" parent="1" vertex="1">
          <mxGeometry x="460" y="-279" width="12" height="12" as="geometry" />
        </mxCell>
        <mxCell id="z3EhqX91uvno9xciMRmo-117" value="" style="whiteSpace=wrap;html=1;aspect=fixed;fontSize=11;fillColor=#9AC7BF;strokeColor=none;rounded=1;" parent="1" vertex="1">
          <mxGeometry x="475" y="-279" width="12" height="12" as="geometry" />
        </mxCell>
        <mxCell id="z3EhqX91uvno9xciMRmo-118" value="" style="whiteSpace=wrap;html=1;aspect=fixed;fontSize=11;fillColor=#9AC7BF;strokeColor=none;rounded=1;" parent="1" vertex="1">
          <mxGeometry x="490" y="-279" width="12" height="12" as="geometry" />
        </mxCell>
        <mxCell id="z3EhqX91uvno9xciMRmo-119" value="" style="whiteSpace=wrap;html=1;aspect=fixed;fontSize=11;fillColor=#9AC7BF;strokeColor=none;rounded=1;" parent="1" vertex="1">
          <mxGeometry x="505" y="-279" width="12" height="12" as="geometry" />
        </mxCell>
        <mxCell id="z3EhqX91uvno9xciMRmo-120" value="" style="whiteSpace=wrap;html=1;aspect=fixed;fontSize=11;fillColor=#9AC7BF;strokeColor=none;rounded=1;" parent="1" vertex="1">
          <mxGeometry x="520" y="-279" width="12" height="12" as="geometry" />
        </mxCell>
        <mxCell id="z3EhqX91uvno9xciMRmo-121" value="" style="whiteSpace=wrap;html=1;aspect=fixed;fontSize=11;fillColor=#9AC7BF;strokeColor=none;rounded=1;" parent="1" vertex="1">
          <mxGeometry x="535" y="-279" width="12" height="12" as="geometry" />
        </mxCell>
        <mxCell id="z3EhqX91uvno9xciMRmo-122" value="" style="whiteSpace=wrap;html=1;aspect=fixed;fontSize=11;fillColor=#9AC7BF;strokeColor=none;rounded=1;" parent="1" vertex="1">
          <mxGeometry x="340" y="-263" width="12" height="12" as="geometry" />
        </mxCell>
        <mxCell id="z3EhqX91uvno9xciMRmo-123" value="" style="whiteSpace=wrap;html=1;aspect=fixed;fontSize=11;fillColor=#9AC7BF;strokeColor=none;rounded=1;" parent="1" vertex="1">
          <mxGeometry x="355" y="-263" width="12" height="12" as="geometry" />
        </mxCell>
        <mxCell id="z3EhqX91uvno9xciMRmo-124" value="" style="whiteSpace=wrap;html=1;aspect=fixed;fontSize=11;fillColor=#9AC7BF;strokeColor=none;rounded=1;" parent="1" vertex="1">
          <mxGeometry x="370" y="-263" width="12" height="12" as="geometry" />
        </mxCell>
        <mxCell id="z3EhqX91uvno9xciMRmo-125" value="" style="whiteSpace=wrap;html=1;aspect=fixed;fontSize=11;fillColor=#9AC7BF;strokeColor=none;rounded=1;" parent="1" vertex="1">
          <mxGeometry x="385" y="-263" width="12" height="12" as="geometry" />
        </mxCell>
        <mxCell id="z3EhqX91uvno9xciMRmo-126" value="" style="whiteSpace=wrap;html=1;aspect=fixed;fontSize=11;fillColor=#9AC7BF;strokeColor=none;rounded=1;" parent="1" vertex="1">
          <mxGeometry x="400" y="-263" width="12" height="12" as="geometry" />
        </mxCell>
        <mxCell id="z3EhqX91uvno9xciMRmo-127" value="" style="whiteSpace=wrap;html=1;aspect=fixed;fontSize=11;fillColor=#9AC7BF;strokeColor=none;rounded=1;" parent="1" vertex="1">
          <mxGeometry x="415" y="-263" width="12" height="12" as="geometry" />
        </mxCell>
        <mxCell id="z3EhqX91uvno9xciMRmo-128" value="" style="whiteSpace=wrap;html=1;aspect=fixed;fontSize=11;fillColor=#9AC7BF;strokeColor=none;rounded=1;" parent="1" vertex="1">
          <mxGeometry x="430" y="-263" width="12" height="12" as="geometry" />
        </mxCell>
        <mxCell id="z3EhqX91uvno9xciMRmo-129" value="" style="whiteSpace=wrap;html=1;aspect=fixed;fontSize=11;fillColor=#9AC7BF;strokeColor=none;rounded=1;" parent="1" vertex="1">
          <mxGeometry x="445" y="-263" width="12" height="12" as="geometry" />
        </mxCell>
        <mxCell id="z3EhqX91uvno9xciMRmo-130" value="" style="whiteSpace=wrap;html=1;aspect=fixed;fontSize=11;fillColor=#9AC7BF;strokeColor=none;rounded=1;" parent="1" vertex="1">
          <mxGeometry x="460" y="-263" width="12" height="12" as="geometry" />
        </mxCell>
        <mxCell id="z3EhqX91uvno9xciMRmo-131" value="" style="whiteSpace=wrap;html=1;aspect=fixed;fontSize=11;fillColor=#9AC7BF;strokeColor=none;rounded=1;" parent="1" vertex="1">
          <mxGeometry x="475" y="-263" width="12" height="12" as="geometry" />
        </mxCell>
        <mxCell id="z3EhqX91uvno9xciMRmo-132" value="" style="whiteSpace=wrap;html=1;aspect=fixed;fontSize=11;fillColor=#9AC7BF;strokeColor=none;rounded=1;" parent="1" vertex="1">
          <mxGeometry x="490" y="-263" width="12" height="12" as="geometry" />
        </mxCell>
        <mxCell id="z3EhqX91uvno9xciMRmo-133" value="" style="whiteSpace=wrap;html=1;aspect=fixed;fontSize=11;fillColor=#9AC7BF;strokeColor=none;rounded=1;" parent="1" vertex="1">
          <mxGeometry x="505" y="-263" width="12" height="12" as="geometry" />
        </mxCell>
        <mxCell id="z3EhqX91uvno9xciMRmo-134" value="" style="whiteSpace=wrap;html=1;aspect=fixed;fontSize=11;fillColor=#9AC7BF;strokeColor=none;rounded=1;" parent="1" vertex="1">
          <mxGeometry x="520" y="-263" width="12" height="12" as="geometry" />
        </mxCell>
        <mxCell id="z3EhqX91uvno9xciMRmo-135" value="" style="whiteSpace=wrap;html=1;aspect=fixed;fontSize=11;fillColor=#9AC7BF;strokeColor=none;rounded=1;" parent="1" vertex="1">
          <mxGeometry x="535" y="-263" width="12" height="12" as="geometry" />
        </mxCell>
        <mxCell id="z3EhqX91uvno9xciMRmo-136" value="" style="whiteSpace=wrap;html=1;aspect=fixed;fontSize=11;fillColor=#9AC7BF;strokeColor=none;rounded=1;" parent="1" vertex="1">
          <mxGeometry x="340" y="-248" width="12" height="12" as="geometry" />
        </mxCell>
        <mxCell id="z3EhqX91uvno9xciMRmo-137" value="" style="whiteSpace=wrap;html=1;aspect=fixed;fontSize=11;fillColor=#9AC7BF;strokeColor=none;rounded=1;" parent="1" vertex="1">
          <mxGeometry x="355" y="-248" width="12" height="12" as="geometry" />
        </mxCell>
        <mxCell id="z3EhqX91uvno9xciMRmo-138" value="" style="whiteSpace=wrap;html=1;aspect=fixed;fontSize=11;fillColor=#9AC7BF;strokeColor=none;rounded=1;" parent="1" vertex="1">
          <mxGeometry x="370" y="-248" width="12" height="12" as="geometry" />
        </mxCell>
        <mxCell id="z3EhqX91uvno9xciMRmo-139" value="" style="whiteSpace=wrap;html=1;aspect=fixed;fontSize=11;fillColor=#9AC7BF;strokeColor=none;rounded=1;" parent="1" vertex="1">
          <mxGeometry x="385" y="-248" width="12" height="12" as="geometry" />
        </mxCell>
        <mxCell id="z3EhqX91uvno9xciMRmo-140" value="" style="whiteSpace=wrap;html=1;aspect=fixed;fontSize=11;fillColor=#9AC7BF;strokeColor=none;rounded=1;" parent="1" vertex="1">
          <mxGeometry x="400" y="-248" width="12" height="12" as="geometry" />
        </mxCell>
        <mxCell id="z3EhqX91uvno9xciMRmo-141" value="" style="whiteSpace=wrap;html=1;aspect=fixed;fontSize=11;fillColor=#9AC7BF;strokeColor=none;rounded=1;" parent="1" vertex="1">
          <mxGeometry x="415" y="-248" width="12" height="12" as="geometry" />
        </mxCell>
        <mxCell id="z3EhqX91uvno9xciMRmo-142" value="" style="whiteSpace=wrap;html=1;aspect=fixed;fontSize=11;fillColor=#9AC7BF;strokeColor=none;rounded=1;" parent="1" vertex="1">
          <mxGeometry x="430" y="-248" width="12" height="12" as="geometry" />
        </mxCell>
        <mxCell id="z3EhqX91uvno9xciMRmo-143" value="" style="whiteSpace=wrap;html=1;aspect=fixed;fontSize=11;fillColor=#9AC7BF;strokeColor=none;rounded=1;" parent="1" vertex="1">
          <mxGeometry x="445" y="-248" width="12" height="12" as="geometry" />
        </mxCell>
        <mxCell id="z3EhqX91uvno9xciMRmo-144" value="" style="whiteSpace=wrap;html=1;aspect=fixed;fontSize=11;fillColor=#9AC7BF;strokeColor=none;rounded=1;" parent="1" vertex="1">
          <mxGeometry x="460" y="-248" width="12" height="12" as="geometry" />
        </mxCell>
        <mxCell id="z3EhqX91uvno9xciMRmo-145" value="" style="whiteSpace=wrap;html=1;aspect=fixed;fontSize=11;fillColor=#9AC7BF;strokeColor=none;rounded=1;" parent="1" vertex="1">
          <mxGeometry x="475" y="-248" width="12" height="12" as="geometry" />
        </mxCell>
        <mxCell id="z3EhqX91uvno9xciMRmo-146" value="" style="whiteSpace=wrap;html=1;aspect=fixed;fontSize=11;fillColor=#9AC7BF;strokeColor=none;rounded=1;" parent="1" vertex="1">
          <mxGeometry x="490" y="-248" width="12" height="12" as="geometry" />
        </mxCell>
        <mxCell id="z3EhqX91uvno9xciMRmo-147" value="" style="whiteSpace=wrap;html=1;aspect=fixed;fontSize=11;fillColor=#9AC7BF;strokeColor=none;rounded=1;" parent="1" vertex="1">
          <mxGeometry x="505" y="-248" width="12" height="12" as="geometry" />
        </mxCell>
        <mxCell id="z3EhqX91uvno9xciMRmo-148" value="" style="whiteSpace=wrap;html=1;aspect=fixed;fontSize=11;fillColor=#9AC7BF;strokeColor=none;rounded=1;" parent="1" vertex="1">
          <mxGeometry x="520" y="-248" width="12" height="12" as="geometry" />
        </mxCell>
        <mxCell id="z3EhqX91uvno9xciMRmo-149" value="" style="whiteSpace=wrap;html=1;aspect=fixed;fontSize=11;fillColor=#9AC7BF;strokeColor=none;rounded=1;" parent="1" vertex="1">
          <mxGeometry x="535" y="-248" width="12" height="12" as="geometry" />
        </mxCell>
        <mxCell id="z3EhqX91uvno9xciMRmo-150" value="" style="whiteSpace=wrap;html=1;aspect=fixed;fontSize=11;fillColor=#9AC7BF;strokeColor=none;rounded=1;" parent="1" vertex="1">
          <mxGeometry x="340" y="-233" width="12" height="12" as="geometry" />
        </mxCell>
        <mxCell id="z3EhqX91uvno9xciMRmo-151" value="" style="whiteSpace=wrap;html=1;aspect=fixed;fontSize=11;fillColor=#9AC7BF;strokeColor=none;rounded=1;" parent="1" vertex="1">
          <mxGeometry x="355" y="-233" width="12" height="12" as="geometry" />
        </mxCell>
        <mxCell id="z3EhqX91uvno9xciMRmo-152" value="" style="whiteSpace=wrap;html=1;aspect=fixed;fontSize=11;fillColor=#9AC7BF;strokeColor=none;rounded=1;" parent="1" vertex="1">
          <mxGeometry x="370" y="-233" width="12" height="12" as="geometry" />
        </mxCell>
        <mxCell id="z3EhqX91uvno9xciMRmo-153" value="" style="whiteSpace=wrap;html=1;aspect=fixed;fontSize=11;fillColor=#9AC7BF;strokeColor=none;rounded=1;" parent="1" vertex="1">
          <mxGeometry x="385" y="-233" width="12" height="12" as="geometry" />
        </mxCell>
        <mxCell id="z3EhqX91uvno9xciMRmo-154" value="" style="whiteSpace=wrap;html=1;aspect=fixed;fontSize=11;fillColor=#9AC7BF;strokeColor=none;rounded=1;" parent="1" vertex="1">
          <mxGeometry x="400" y="-233" width="12" height="12" as="geometry" />
        </mxCell>
        <mxCell id="z3EhqX91uvno9xciMRmo-155" value="" style="whiteSpace=wrap;html=1;aspect=fixed;fontSize=11;fillColor=#9AC7BF;strokeColor=none;rounded=1;" parent="1" vertex="1">
          <mxGeometry x="415" y="-233" width="12" height="12" as="geometry" />
        </mxCell>
        <mxCell id="z3EhqX91uvno9xciMRmo-156" value="" style="whiteSpace=wrap;html=1;aspect=fixed;fontSize=11;fillColor=#9AC7BF;strokeColor=none;rounded=1;" parent="1" vertex="1">
          <mxGeometry x="430" y="-233" width="12" height="12" as="geometry" />
        </mxCell>
        <mxCell id="z3EhqX91uvno9xciMRmo-157" value="" style="whiteSpace=wrap;html=1;aspect=fixed;fontSize=11;fillColor=#9AC7BF;strokeColor=none;rounded=1;" parent="1" vertex="1">
          <mxGeometry x="445" y="-233" width="12" height="12" as="geometry" />
        </mxCell>
        <mxCell id="z3EhqX91uvno9xciMRmo-158" value="" style="whiteSpace=wrap;html=1;aspect=fixed;fontSize=11;fillColor=#9AC7BF;strokeColor=none;rounded=1;" parent="1" vertex="1">
          <mxGeometry x="460" y="-233" width="12" height="12" as="geometry" />
        </mxCell>
        <mxCell id="z3EhqX91uvno9xciMRmo-159" value="" style="whiteSpace=wrap;html=1;aspect=fixed;fontSize=11;fillColor=#9AC7BF;strokeColor=none;rounded=1;" parent="1" vertex="1">
          <mxGeometry x="475" y="-233" width="12" height="12" as="geometry" />
        </mxCell>
        <mxCell id="z3EhqX91uvno9xciMRmo-160" value="" style="whiteSpace=wrap;html=1;aspect=fixed;fontSize=11;fillColor=#9AC7BF;strokeColor=none;rounded=1;" parent="1" vertex="1">
          <mxGeometry x="490" y="-233" width="12" height="12" as="geometry" />
        </mxCell>
        <mxCell id="z3EhqX91uvno9xciMRmo-161" value="" style="whiteSpace=wrap;html=1;aspect=fixed;fontSize=11;fillColor=#9AC7BF;strokeColor=none;rounded=1;" parent="1" vertex="1">
          <mxGeometry x="505" y="-233" width="12" height="12" as="geometry" />
        </mxCell>
        <mxCell id="z3EhqX91uvno9xciMRmo-162" value="" style="whiteSpace=wrap;html=1;aspect=fixed;fontSize=11;fillColor=#9AC7BF;strokeColor=none;rounded=1;" parent="1" vertex="1">
          <mxGeometry x="520" y="-233" width="12" height="12" as="geometry" />
        </mxCell>
        <mxCell id="z3EhqX91uvno9xciMRmo-163" value="" style="whiteSpace=wrap;html=1;aspect=fixed;fontSize=11;fillColor=#9AC7BF;strokeColor=none;rounded=1;" parent="1" vertex="1">
          <mxGeometry x="535" y="-233" width="12" height="12" as="geometry" />
        </mxCell>
        <mxCell id="z3EhqX91uvno9xciMRmo-164" value="" style="whiteSpace=wrap;html=1;aspect=fixed;fontSize=11;fillColor=#9AC7BF;strokeColor=none;" parent="1" vertex="1">
          <mxGeometry x="505" y="-139" width="12" height="12" as="geometry" />
        </mxCell>
        <mxCell id="z3EhqX91uvno9xciMRmo-165" value="计算单元" style="text;html=1;strokeColor=none;fillColor=none;align=center;verticalAlign=middle;whiteSpace=wrap;rounded=0;fontSize=11;" parent="1" vertex="1">
          <mxGeometry x="521" y="-148" width="60" height="30" as="geometry" />
        </mxCell>
        <mxCell id="z3EhqX91uvno9xciMRmo-166" value="" style="whiteSpace=wrap;html=1;aspect=fixed;fontSize=11;fillColor=#FDD276;strokeColor=none;" parent="1" vertex="1">
          <mxGeometry x="505" y="-114" width="12" height="12" as="geometry" />
        </mxCell>
        <mxCell id="z3EhqX91uvno9xciMRmo-167" value="控制单元" style="text;html=1;strokeColor=none;fillColor=none;align=center;verticalAlign=middle;whiteSpace=wrap;rounded=0;fontSize=11;" parent="1" vertex="1">
          <mxGeometry x="521" y="-123" width="60" height="30" as="geometry" />
        </mxCell>
        <mxCell id="z3EhqX91uvno9xciMRmo-168" value="" style="whiteSpace=wrap;html=1;aspect=fixed;fontSize=11;fillColor=#F19C99;strokeColor=none;" parent="1" vertex="1">
          <mxGeometry x="505" y="-89" width="12" height="12" as="geometry" />
        </mxCell>
        <mxCell id="z3EhqX91uvno9xciMRmo-169" value="存储单元" style="text;html=1;strokeColor=none;fillColor=none;align=center;verticalAlign=middle;whiteSpace=wrap;rounded=0;fontSize=11;" parent="1" vertex="1">
          <mxGeometry x="521" y="-98" width="60" height="30" as="geometry" />
        </mxCell>
      </root>
    </mxGraphModel>
  </diagram>
</mxfile>
